<svg width="33" height="30" viewBox="0 0 33 30" fill="none" xmlns="http://www.w3.org/2000/svg">
<g clip-path="url(#clip0_1_226)">
<path d="M9.95921 -0.000142312C8.65069 -0.00603875 7.35384 0.244197 6.14277 0.736261C4.93169 1.22832 3.83016 1.95257 2.90111 2.8676C1.07837 4.67593 0.0388062 7.11957 0.00392795 9.67787C-0.0309503 12.2362 0.941612 14.7069 2.71439 16.5635C4.81813 18.8874 7.22062 21.1 9.47373 23.325L15.9966 29.8021C16.1197 29.8905 16.2678 29.9381 16.4198 29.9381C16.4924 29.9625 16.5712 29.9625 16.6439 29.9381H16.731C16.7672 29.9083 16.8006 29.8752 16.8306 29.8392H16.9177L23.6522 23.325C25.8555 21.0753 28.3949 18.8008 30.4115 16.477C32.1525 14.6219 33.1019 12.1691 33.0601 9.63362C33.0183 7.09817 31.9887 4.67746 30.1874 2.87996C28.3833 1.11859 25.9716 0.105153 23.4423 0.045462C20.9129 -0.0142295 18.4555 0.884304 16.5692 2.55857C14.7626 0.919722 12.4062 0.00755858 9.95921 -0.000142312ZM9.95921 1.43373C12.2131 1.43882 14.3739 2.32728 15.9717 3.90592C16.1114 4.03186 16.2933 4.10163 16.482 4.10163C16.6707 4.10163 16.8527 4.03186 16.9924 3.90592C17.7819 3.12178 18.7192 2.49977 19.7509 2.07539C20.7825 1.65101 21.8882 1.43259 23.0049 1.43259C24.1215 1.43259 25.2272 1.65101 26.2588 2.07539C27.2905 2.49977 28.2278 3.12178 29.0173 3.90592C30.6049 5.45933 31.507 7.57469 31.5256 9.78781C31.5443 12.0009 30.678 14.131 29.1169 15.7106L22.5194 22.2496L16.5069 28.2199L10.4945 22.2496C8.3285 20.0617 6.0256 17.9356 3.92186 15.723C3.14086 14.9481 2.5213 14.028 2.09859 13.0152C1.67588 12.0025 1.4583 10.9169 1.4583 9.82063C1.4583 8.72433 1.67588 7.63877 2.09859 6.62602C2.5213 5.61326 3.14086 4.69315 3.92186 3.91828C5.5237 2.32908 7.69487 1.43558 9.95921 1.43373Z" fill="#809B10"/>
</g>
<defs>
<clipPath id="clip0_1_226">
<rect width="33" height="30" fill="white"/>
</clipPath>
</defs>
</svg>
