<svg width="28" height="36" viewBox="0 0 28 36" fill="none" xmlns="http://www.w3.org/2000/svg">
<path d="M14 0.000130396C12.1804 -0.0204766 10.3747 0.328224 8.68613 1.0263C6.99755 1.72438 5.45919 2.75814 4.159 4.06849C2.8588 5.37885 1.82226 6.94011 1.10864 8.66301C0.39501 10.3859 0.0182861 12.2367 0 14.1095C0 18.2163 3.5 23.5358 6.81333 27.9548C8.93322 30.7079 11.2 33.3377 13.6033 35.832C13.6554 35.8858 13.7172 35.9284 13.7852 35.9575C13.8533 35.9866 13.9263 36.0016 14 36.0016C14.0737 36.0016 14.1467 35.9866 14.2148 35.9575C14.2828 35.9284 14.3446 35.8858 14.3967 35.832C16.8 33.3377 19.0668 30.7079 21.1867 27.9548C24.5583 23.5358 28 18.2163 28 14.1095C27.9817 12.2367 27.605 10.3859 26.8914 8.66301C26.1777 6.94011 25.1412 5.37885 23.841 4.06849C22.5408 2.75814 21.0025 1.72438 19.3139 1.0263C17.6253 0.328224 15.8196 -0.0204766 14 0.000130396ZM14 1.20093C15.6668 1.17873 17.3215 1.49527 18.8692 2.13243C20.4169 2.76959 21.8273 3.71483 23.0195 4.914C24.2116 6.11316 25.1622 7.54267 25.8166 9.12062C26.4711 10.6986 26.8166 12.3939 26.8333 14.1095C26.8333 17.4838 23.5667 22.8514 20.23 27.2103C18.2923 29.7583 16.2121 32.188 14 34.4871C11.7879 32.188 9.70771 29.7583 7.77 27.2103C4.43333 22.8153 1.16667 17.4838 1.16667 14.1095C1.18341 12.3939 1.52891 10.6986 2.18337 9.12062C2.83783 7.54267 3.78838 6.11316 4.98055 4.914C6.17272 3.71483 7.58308 2.76959 9.1308 2.13243C10.6785 1.49527 12.3332 1.17873 14 1.20093ZM14 7.80534C12.7309 7.80534 11.4903 8.19268 10.4351 8.91838C9.37988 9.64408 8.55744 10.6755 8.07177 11.8823C7.58611 13.0891 7.45904 14.4171 7.70663 15.6982C7.95422 16.9793 8.56534 18.1561 9.46273 19.0798C10.3601 20.0034 11.5035 20.6324 12.7482 20.8872C13.9929 21.1421 15.2831 21.0113 16.4556 20.5114C17.628 20.0115 18.6302 19.165 19.3353 18.0789C20.0403 16.9929 20.4167 15.716 20.4167 14.4097C20.4136 12.6591 19.7366 10.9811 18.5339 9.74323C17.3312 8.50535 15.7009 7.80851 14 7.80534ZM14 9.00614C15.0384 9.00614 16.0534 9.32305 16.9167 9.91681C17.7801 10.5106 18.453 11.3545 18.8504 12.3419C19.2477 13.3292 19.3517 14.4157 19.1491 15.4639C18.9466 16.5121 18.4465 17.475 17.7123 18.2307C16.9781 18.9864 16.0426 19.501 15.0242 19.7095C14.0058 19.918 12.9502 19.811 11.9909 19.402C11.0316 18.993 10.2117 18.3004 9.63478 17.4118C9.05791 16.5232 8.75 15.4785 8.75 14.4097C8.74846 13.6997 8.88321 12.9963 9.1465 12.34C9.40979 11.6837 9.79644 11.0874 10.2843 10.5853C10.7721 10.0832 11.3514 9.68523 11.9891 9.41424C12.6267 9.14324 13.3101 9.00455 14 9.00614Z" fill="#809B10"/>
</svg>
