<svg width="30" height="37" viewBox="0 0 30 37" fill="none" xmlns="http://www.w3.org/2000/svg">
<path d="M14.8752 0.864014C13.9593 0.872988 13.079 1.22633 12.4043 1.85589C11.8106 2.40813 11.4099 3.14173 11.2628 3.94585C11.1157 4.74997 11.2302 5.5809 11.5889 6.31307C8.01244 7.14902 4.86401 9.29368 2.74416 12.3379C0.624313 15.3822 -0.318577 19.1129 0.0953608 22.8185C0.509299 26.5241 2.25109 29.9451 4.98847 32.429C7.72585 34.9129 11.2672 36.2858 14.937 36.2858C18.6068 36.2858 22.1482 34.9129 24.8856 32.429C27.6229 29.9451 29.3647 26.5241 29.7787 22.8185C30.1926 19.1129 29.2497 15.3822 27.1299 12.3379C25.01 9.29368 21.8616 7.14902 18.2852 6.31307C18.5711 5.73154 18.7041 5.0847 18.6711 4.43547C18.6382 3.78624 18.4405 3.15672 18.0972 2.60816C17.7539 2.0596 17.2768 1.61066 16.7122 1.30503C16.1476 0.999393 15.5147 0.847462 14.8752 0.864014V0.864014ZM14.8752 2.11956C15.4759 2.12044 16.0556 2.3436 16.5061 2.74733C16.9691 3.16783 17.2648 3.74584 17.3376 4.37252C17.4105 4.99921 17.2553 5.63132 16.9014 6.14985C16.8304 6.23961 16.7873 6.34893 16.7779 6.46374C16.7399 6.53681 16.7168 6.6169 16.71 6.69924C16.7031 6.78158 16.7126 6.86448 16.738 6.943C16.7634 7.02151 16.8041 7.09402 16.8576 7.15621C16.9112 7.2184 16.9765 7.26898 17.0497 7.30495C17.1084 7.34454 17.1769 7.36631 17.2474 7.36773C20.6234 7.97081 23.6543 9.83795 25.7421 12.6007C27.8298 15.3634 28.8228 18.8211 28.5249 22.2913C28.2271 25.7616 26.6601 28.9923 24.1332 31.346C21.6063 33.6997 18.303 35.0054 14.8752 35.0054C11.4475 35.0054 8.14422 33.6997 5.61731 31.346C3.09041 28.9923 1.52342 25.7616 1.22557 22.2913C0.927719 18.8211 1.92065 15.3634 4.00841 12.6007C6.09618 9.83795 9.12712 7.97081 12.5031 7.36773C12.6652 7.34585 12.8121 7.25955 12.9117 7.12775C13.0113 6.99595 13.0554 6.82941 13.0344 6.66462C13.0401 6.62298 13.0401 6.58072 13.0344 6.53907C13.0238 6.39506 12.9674 6.25844 12.8738 6.14985C12.5914 5.77259 12.4198 5.32182 12.379 4.84964C12.3381 4.37747 12.4295 3.90318 12.6428 3.48161C12.856 3.06004 13.1823 2.70842 13.5839 2.46739C13.9855 2.22636 14.4461 2.10577 14.9123 2.11956H14.8752ZM14.7888 4.02798C14.6449 4.05472 14.515 4.1325 14.4222 4.24746C14.3294 4.36242 14.2798 4.50711 14.2822 4.65575C14.2822 4.73984 14.2985 4.82311 14.3302 4.9008C14.3618 4.97848 14.4083 5.04907 14.4668 5.10853C14.5253 5.16799 14.5947 5.21516 14.6712 5.24734C14.7476 5.27952 14.8296 5.29608 14.9123 5.29608V5.29608C14.9966 5.29624 15.0801 5.27884 15.1576 5.24496C15.2351 5.21108 15.3049 5.16144 15.3628 5.0991C15.4206 5.03676 15.4653 4.96303 15.4941 4.88246C15.5229 4.8019 15.5351 4.7162 15.53 4.63064C15.53 4.46415 15.465 4.30447 15.3491 4.18674C15.2333 4.06901 15.0761 4.00287 14.9123 4.00287H14.7888V4.02798ZM14.9123 8.13361C12.3871 8.13113 9.91786 8.88999 7.81718 10.3142C5.7165 11.7384 4.07878 13.7638 3.11128 16.1343C2.14378 18.5047 1.89 21.1135 2.38205 23.6306C2.8741 26.1476 4.08987 28.4598 5.87548 30.2744C7.6611 32.089 9.9363 33.3245 12.4131 33.8245C14.89 34.3246 17.4571 34.0667 19.7897 33.0835C22.1222 32.1002 24.1153 30.4359 25.5168 28.3011C26.9182 26.1664 27.6649 23.6571 27.6625 21.0908C27.6592 17.6554 26.3148 14.3616 23.9244 11.9324C21.534 9.50313 18.2929 8.13693 14.9123 8.13361V8.13361ZM14.2822 8.8116V10.9837H15.5177V8.8116C18.3009 8.94898 20.9512 10.0627 23.0171 11.963L21.5098 13.5073L22.3623 14.3737L23.8819 12.8419C25.7503 14.9435 26.8497 17.6347 26.9953 20.463H24.8703V21.7186H27.0077C26.862 24.547 25.7626 27.2382 23.8943 29.3397L22.3746 27.7954L21.5221 28.6743L23.0294 30.2061C20.9665 32.1146 18.3162 33.2372 15.53 33.3826V31.2105H14.2946V33.3826C11.5105 33.2386 8.86098 32.1208 6.79519 30.2186L8.31483 28.6868L7.46235 27.808L5.93035 29.3523C4.05677 27.2541 2.95655 24.5609 2.81694 21.7311H4.9049V20.4756H2.81694C2.95373 17.6415 4.05414 14.9434 5.93035 12.8419L7.44999 14.3737L8.30248 13.5073L6.78283 11.963C8.84982 10.0645 11.4994 8.95103 14.2822 8.8116V8.8116ZM20.4596 14.7127C20.3895 14.7244 20.3224 14.75 20.2619 14.788L13.2197 19.0568L8.77196 26.4896C8.76505 26.5312 8.76505 26.5736 8.77196 26.6152V26.6152C8.74733 26.7183 8.74733 26.826 8.77196 26.9291V27.0044C8.83523 27.1604 8.95548 27.2855 9.1075 27.3534C9.25952 27.4213 9.4315 27.4267 9.58738 27.3685H9.67386L16.7532 23.1499C16.8079 23.115 16.8578 23.0728 16.9014 23.0243C16.9371 22.9878 16.9663 22.9453 16.9879 22.8988L21.1021 15.6669C21.1439 15.5963 21.1713 15.5179 21.1827 15.4364C21.1942 15.3548 21.1894 15.2718 21.1686 15.1922C21.1479 15.1125 21.1116 15.038 21.062 14.9728C21.0124 14.9077 20.9504 14.8534 20.8797 14.8131C20.7831 14.7533 20.6716 14.7228 20.5585 14.7252L20.4596 14.7127ZM18.7547 17.1861L16.2837 21.6056L14.4799 19.6972L18.7547 17.1861ZM13.5533 20.6639L14.5293 21.6432L15.3447 22.4719L11.0823 25.0458L13.5533 20.6639Z" fill="#809B10"/>
</svg>
